Coordinates
version=1
nRows=18
nColumns=28
inDegrees=yes

Units are S.I. units (second, meters, Newtons, ...)
Angles are in degrees.

endheader
time	pelvis_tilt	pelvis_list	pelvis_rotation	pelvis_tx	pelvis_ty	pelvis_tz	hip_flexion_r	hip_adduction_r	hip_rotation_r	knee_angle_r	ankle_angle_r	subtalar_angle_r	mtp_angle_r	hip_flexion_l	hip_adduction_l	hip_rotation_l	knee_angle_l	socket_flexion	socket_adduction	socket_rotation	socket_tx	socket_ty	socket_tz	foot_flex	lumbar_extension	lumbar_bending	lumbar_rotation
      0.95000000	      2.84903857	     -4.04349931	     -4.15909413	      0.41870924	      1.03539137	      0.34193921	     -0.01008009	      9.65156484	      2.22146233	    -15.53359265	     10.25937166	    -10.53189506	      3.41236354	     18.09972388	    -11.96169223	     -6.39385983	    -74.97642874	      0.00000000	      0.00000000	      0.00000000	      0.00000000	      0.06748223	      0.00000000	      0.21130686	    -10.52487103	      3.09875827	      6.42954177
      0.95416667	      2.85555003	     -3.84856984	     -4.41735261	      0.42347945	      1.03631518	      0.34252515	     -0.47787986	      9.38071581	      2.25282484	    -15.21092187	     10.19936044	    -10.15769574	      3.53396810	     18.56823996	    -11.75892876	     -6.46106090	    -74.49776831	      0.00000000	      0.00000000	      0.00000000	      0.00000000	      0.06704099	      0.00000000	      0.24065264	    -10.57851057	      2.80740829	      6.65273988
      0.95833333	      2.84968841	     -3.66568007	     -4.66276662	      0.42825102	      1.03719124	      0.34307995	     -0.93849366	      9.12279132	      2.28765505	    -14.87119744	     10.14529839	     -9.81594868	      3.63667455	     19.04352113	    -11.57014698	     -6.52508446	    -73.98822021	      0.00000000	      0.00000000	      0.00000000	      0.00000000	      0.06658197	      0.00000000	      0.28152018	    -10.61716312	      2.53820206	      6.84516760
      0.96250000	      2.84428748	     -3.48098850	     -4.91513333	      0.43303411	      1.03802839	      0.34363130	     -1.39671154	      8.86040413	      2.33052933	    -14.53847786	     10.07455561	     -9.45356498	      3.74550309	     19.47127606	    -11.35765686	     -6.56575676	    -73.40069291	      0.00000000	      0.00000000	      0.00000000	      0.00000000	      0.06589247	      0.00000000	      0.30419164	    -10.64796257	      2.26570290	      7.05393402
      0.96666667	      2.87177966	     -3.28723181	     -5.20257889	      0.43788054	      1.03889007	      0.34413181	     -1.88003053	      8.55987150	      2.34109310	    -14.22901567	      9.99332780	     -8.99801382	      3.92476631	     19.77026770	    -11.13467735	     -6.67185873	    -72.68732250	      0.00000000	      0.00000000	      0.00000000	      0.00000000	      0.06481395	      0.00000000	      0.30136000	    -10.71348560	      1.98360587	      7.33875139
      0.97083333	      2.87850157	     -3.27612315	     -5.45073550	      0.44207155	      1.03951285	      0.34462895	     -2.17486577	      8.48548648	      2.28889485	    -14.21073256	      9.99923560	     -8.94862905	      3.94351992	     20.29800215	    -11.13327135	     -6.65198759	    -72.21238902	      0.00000000	      0.00000000	      0.00000000	      0.00000000	      0.06439404	      0.00000000	      0.34758427	    -10.88467147	      1.94807786	      7.36605174
      0.97500000	      3.25462282	     -2.91678484	     -5.93688758	      0.44751842	      1.04084456	      0.34543972	     -3.10452332	      7.91335106	      2.28949648	    -13.78732425	      9.98434536	     -7.71556228	      4.74900617	     19.76867557	    -10.73100861	     -7.09750916	    -70.94939824	      0.00000000	      0.00000000	      0.00000000	      0.00000000	      0.06176563	      0.00000000	      0.30753371	    -11.22388314	      1.35340337	      8.16590222
      0.97916667	      3.19378621	     -2.82099431	     -6.09113433	      0.45212727	      1.04136321	      0.34579219	     -3.49488812	      7.75677781	      2.35219294	    -13.45001263	      9.95792832	     -7.53463067	      4.82549220	     20.26939054	    -10.57074971	     -6.97796456	    -70.28655027	      0.00000000	      0.00000000	      0.00000000	      0.00000000	      0.06094614	      0.00000000	      0.36868836	    -11.22872553	      1.22683256	      8.19806178
      0.98333333	      3.12595952	     -2.70524881	     -6.27171900	      0.45691546	      1.04185624	      0.34622064	     -3.90199829	      7.56989024	      2.38153550	    -13.06886687	      9.85984498	     -7.31022709	      4.89988425	     20.69152454	    -10.40812922	     -6.92609750	    -69.50962415	      0.00000000	      0.00000000	      0.00000000	      0.00000000	      0.05987324	      0.00000000	      0.38443596	    -11.18924015	      1.06014815	      8.27105870
      0.98750000	      3.12446463	     -2.70633916	     -6.49340377	      0.46099713	      1.04229494	      0.34669737	     -4.17677968	      7.50744484	      2.33375119	    -13.04824501	      9.85324276	     -7.27243672	      4.91286258	     21.22997221	    -10.42716059	     -6.89168378	    -68.96853406	      0.00000000	      0.00000000	      0.00000000	      0.00000000	      0.05963717	      0.00000000	      0.42806207	    -11.36715246	      1.01782316	      8.28617149
      0.99166667	      3.39247072	     -2.44862066	     -6.89901343	      0.46656322	      1.04324640	      0.34739947	     -5.07712389	      7.06065120	      2.45090553	    -12.45000847	      9.59559399	     -6.49166319	      5.52119271	     20.73660225	    -10.09484786	     -7.19101242	    -67.52213834	      0.00000000	      0.00000000	      0.00000000	      0.00000000	      0.05646514	      0.00000000	      0.35688959	    -11.56983590	      0.58435610	      8.81911010
      0.99583333	      3.38169266	     -2.45909281	     -7.09493453	      0.47053733	      1.04355903	      0.34784536	     -5.33667956	      7.01301283	      2.41556317	    -12.42401237	      9.61436601	     -6.46481902	      5.53789669	     21.28984693	    -10.12007727	     -7.12707606	    -66.95301215	      0.00000000	      0.00000000	      0.00000000	      0.00000000	      0.05628793	      0.00000000	      0.41297480	    -11.75487363	      0.55008333	      8.82838404
      1.00000000	      3.24938466	     -2.32440817	     -7.23163901	      0.47601637	      1.04378523	      0.34818485	     -5.86713302	      6.80300273	      2.53874227	    -11.71990740	      9.49703398	     -6.11489464	      5.68872887	     21.47470698	     -9.87147849	     -7.01330310	    -65.73193416	      0.00000000	      0.00000000	      0.00000000	      0.00000000	      0.05385459	      0.00000000	      0.36192437	    -11.50671358	      0.37504460	      8.96632793
      1.00416667	      3.23910188	     -2.33778124	     -7.42333929	      0.47994272	      1.04400641	      0.34861272	     -6.11567332	      6.75650306	      2.50812729	    -11.71340103	      9.50533260	     -6.08662416	      5.70306485	     22.01438152	     -9.90114223	     -6.95226447	    -65.12825229	      0.00000000	      0.00000000	      0.00000000	      0.00000000	      0.05371635	      0.00000000	      0.43059122	    -11.70788008	      0.33889528	      8.97945482
      1.00833333	      3.25340571	     -2.20986972	     -7.67558896	      0.48548981	      1.04432930	      0.34906822	     -6.79126538	      6.50765183	      2.70078420	    -11.04842342	      9.29142974	     -5.63811436	      5.93709788	     21.87675999	     -9.66898936	     -6.96477322	    -63.70348610	      0.00000000	      0.00000000	      0.00000000	      0.00000000	      0.05076445	      0.00000000	      0.37161286	    -11.61926893	      0.13774955	      9.24367796
      1.01250000	      3.52712142	     -2.19179486	     -7.97269855	      0.49027019	      1.04484829	      0.34962949	     -7.57266697	      6.33685399	      2.78791500	    -10.65938504	      9.19692759	     -5.37252950	      6.45485793	     21.62217771	     -9.60688273	     -7.06072674	    -62.49129101	      0.00000000	      0.00000000	      0.00000000	      0.00000000	      0.04861991	      0.00000000	      0.38424906	    -11.98409431	     -0.00270530	      9.56483152
      1.01666667	      3.42574639	     -2.20050153	     -8.06982280	      0.49468026	      1.04478309	      0.34985260	     -7.84807778	      6.30215721	      2.85026483	    -10.47861191	      9.24573610	     -5.29382058	      6.50993044	     22.04626162	     -9.54767865	     -6.85831624	    -61.55594577	      0.00000000	      0.00000000	      0.00000000	      0.00000000	      0.04740914	      0.00000000	      0.40955805	    -11.98951665	     -0.01139224	      9.59602847
      1.02083333	      3.29804690	     -2.20817402	     -8.20327334	      0.49943697	      1.04463100	      0.35017972	     -8.18270371	      6.25254741	      2.87710817	    -10.14250281	      9.25888083	     -5.17294298	      6.55911440	     22.39969140	     -9.51276282	     -6.71805204	    -60.52283529	      0.00000000	      0.00000000	      0.00000000	      0.00000000	      0.04590482	      0.00000000	      0.40933781	    -11.89991241	     -0.02471654	      9.63893429
